#!OML:ASF F:\VICON\USERDATA\Patient Classification 1\PLAYGROUND\JustinFriday\JustinFriday.ASF
:FULLY-SPECIFIED
:DEGREES
3479
root 34.8551 18.2078 8.06308 189.909 49.2257 -163.215
lowerback 14.2994 1.23438 7.06141
upperback 4.05079 3.48046 5.68077
thorax -3.68486 1.93419 1.394
lowerneck -4.94478 5.43159 0.0622468
upperneck 23.946 9.28742 -1.79869
head 8.32993 4.6773 0.250181
rclavicle 7.51406e-014 -7.15625e-014
rhumerus -29.7541 -16.6931 -69.9352
rradius 21.4885
rwrist -4.21421
rhand -17.4047 -24.5038
rfingers 7.12502
rthumb 8.84484 -54.2985
lclavicle 7.51406e-014 -7.15625e-014
lhumerus -36.2629 7.2594 81.5945
lradius 46.2351
lwrist -4.02891
lhand -20.7512 -10.4716
lfingers 7.12502
lthumb 5.61454 19.434
rfemur -10.8572 -1.30253 24.9976
rtibia 19.9344
rfoot -3.57242 2.41874
rtoes 10.1715
lfemur -12.805 -0.332037 -9.70238
ltibia 69.1563
lfoot 1.6855 -4.96948
ltoes 2.82208
3480
root 34.9519 18.2322 8.00323 188.912 47.6159 -163.771
lowerback 14.53 0.935415 7.68815
upperback 4.31105 3.18955 5.39077
thorax -3.48929 1.80818 0.787207
lowerneck -5.36786 5.40967 0.58622
upperneck 23.9174 9.12196 -1.63631
head 8.40984 4.6414 0.218721
rclavicle 2.68359e-014 1.11319e-014
rhumerus -28.8901 -17.3234 -70.0002
rradius 20.9374
rwrist -3.51393
rhand -18.8332 -24.4497
rfingers 7.12502
rthumb 7.46617 -54.298
lclavicle 2.68359e-014 1.11319e-014
lhumerus -35.9808 7.05281 81.2791
lradius 46.3179
lwrist -4.25357
lhand -20.7172 -10.309
lfingers 7.12502
lthumb 5.64739 19.5957
rfemur -9.48352 -2.03676 24.9224
rtibia 19.4789
rfoot -4.08208 1.59006
rtoes 9.90736
lfemur -13.759 -0.617075 -9.83005
ltibia 70.3659
lfoot 0.38471 -5.7071
ltoes 3.10536
3481
root 35.0209 18.2412 7.99994 187.969 50.593 -163.437
lowerback 16.9495 2.28302 6.89447
upperback 4.74287 5.09802 5.23303
thorax -4.31052 2.74349 0.615632
lowerneck -5.21538 5.10349 0.487849
upperneck 23.1918 8.56212 -1.46809
head 8.11413 4.37905 0.215426
rclavicle 8.75646e-014 2.06736e-014
rhumerus -28.1296 -18.2671 -69.6829
rradius 20.3946
rwrist -2.2373
rhand -20.6595 -25.5301
rfingers 7.12502
rthumb 5.70312 -55.4333
lclavicle 8.75646e-014 2.06736e-014
lhumerus -35.8445 6.9028 81.1179
lradius 46.354
lwrist -4.40313
lhand -20.448 -10.3631
lfingers 7.12502
lthumb 5.9073 19.5346
rfemur -7.72704 -0.16647 24.7275
rtibia 19.0205
rfoot -3.73704 2.53241
rtoes 9.13688
lfemur -12.7362 3.20634 -10.1267
ltibia 71.3206
lfoot -1.1766 -6.20965
ltoes 5.44545
3482
root 35.1056 18.2607 7.94788 187.768 50.11 -163.452
lowerback 17.4783 2.40506 7.13412
upperback 4.70527 5.37827 5.2732
thorax -4.60736 2.87523 0.437782
lowerneck -4.97052 4.93296 0.300056
upperneck 22.6243 8.27522 -1.43745
head 7.86587 4.23253 0.208964
rclavicle 1.09928e-013 -1.66979e-014
rhumerus -27.6617 -18.6671 -69.1348
rradius 20.1532
rwrist -0.706175
rhand -20.5777 -26.8618
rfingers 7.12502
rthumb 5.78208 -56.7629
lclavicle 1.09928e-013 -1.66979e-014
lhumerus -35.9862 7.00062 81.0376
lradius 46.2687
lwrist -4.75435
lhand -20.0702 -10.8202
lfingers 7.12502
lthumb 6.27203 19.0669
rfemur -6.9348 -0.334224 24.8752
rtibia 18.6317
rfoot -4.01526 2.12942
rtoes 7.51954
lfemur -13.8805 3.99406 -10.0456
ltibia 72.2788
lfoot -1.93362 -6.91967
ltoes 8.52335
3483
root 35.1924 18.2776 7.90108 187.611 49.7345 -163.419
lowerback 17.9233 2.48926 7.44232
upperback 4.71459 5.60123 5.21908
thorax -4.79217 2.98034 0.138372
lowerneck -5.03962 4.94502 0.234731
upperneck 22.5705 8.24188 -1.19562
head 7.84585 4.23162 0.296222
rclavicle 5.69518e-014 1.98785e-014
rhumerus -27.07 -18.7147 -68.9605
rradius 19.8954
rwrist 0.215241
rhand -19.8548 -26.4183
rfingers 7.12502
rthumb 6.47996 -56.2991
lclavicle 5.69518e-014 1.98785e-014
lhumerus -36.0334 7.28055 80.6924
lradius 46.1984
lwrist -5.41005
lhand -19.6039 -10.7404
lfingers 7.12502
lthumb 6.72218 19.1329
rfemur -6.14846 -0.0645763 25.0464
rtibia 18.2933
rfoot -4.35498 1.46548
rtoes 7.02089
lfemur -15.0017 4.85856 -9.96202
ltibia 73.0667
lfoot -2.52157 -7.74848
ltoes 9.33267
